<svg width="406" height="30" viewBox="0 0 406 30" fill="none" xmlns="http://www.w3.org/2000/svg">
<path d="M405.414 16.1418C406.195 15.3607 406.195 14.0944 405.414 13.3133L392.686 0.585403C391.905 -0.195645 390.639 -0.195645 389.858 0.585403C389.077 1.36645 389.077 2.63278 389.858 3.41383L401.172 14.7275L389.858 26.0412C389.077 26.8223 389.077 28.0886 389.858 28.8697C390.639 29.6507 391.905 29.6507 392.686 28.8697L405.414 16.1418ZM2 12.7275C0.895416 12.7275 0 13.623 0 14.7275C0 15.8321 0.895416 16.7275 2 16.7275V14.7275V12.7275ZM404 14.7275V12.7275L2 12.7275V14.7275V16.7275L404 16.7275V14.7275Z" fill="url(#paint0_linear_112_187)"/>
<defs>
<linearGradient id="paint0_linear_112_187" x1="400.514" y1="13.7794" x2="2.58093" y2="13.7795" gradientUnits="userSpaceOnUse">
<stop offset="0.03" stop-color="#2D00FF"/>
<stop offset="1" stop-color="white"/>
</linearGradient>
</defs>
</svg>
