<svg width="53" height="56" viewBox="0 0 53 56" fill="none" xmlns="http://www.w3.org/2000/svg">
<path d="M16.5609 3.55918C17.1056 3.51424 17.5412 3.53947 18.0131 3.85606C18.4268 4.13482 18.7107 4.56861 18.8012 5.05918C18.8922 5.56795 18.7747 6.09219 18.475 6.51328C17.7989 7.44909 16.6677 7.25928 15.5961 7.45176C11.823 8.10832 8.47083 10.2519 6.29139 13.401C4.12035 16.5394 3.2905 20.4141 3.98475 24.1666C4.67359 27.9064 6.82441 31.2172 9.96132 33.3668C13.0964 35.5142 16.9563 36.3291 20.6918 35.6314C25.3765 34.76 29.3198 31.6127 31.2084 27.2379C31.4153 26.754 31.5937 26.2576 31.7426 25.7525C31.9102 25.1884 32.0154 24.4214 32.349 23.9557C32.6283 23.5662 33.1448 23.2812 33.6215 23.2242C34.1327 23.1636 34.6462 23.3155 35.0424 23.6441C35.4186 23.956 35.6576 24.4032 35.7074 24.8893C35.7536 25.3375 35.5717 25.9747 35.4486 26.4205C34.7857 28.7945 33.6345 31.0038 32.0678 32.9068C33.3903 34.2848 34.8649 35.7092 36.224 37.068C36.3614 36.9656 36.5027 36.8688 36.6469 36.777C37.9081 35.9787 39.4346 35.7129 40.891 36.0387C41.6441 36.2061 42.3542 36.5311 42.973 36.9918C43.4622 37.3558 43.9828 37.9101 44.4252 38.3531L46.3646 40.2955L49.3451 43.274C50.1378 44.066 51.1369 44.9614 51.7172 45.8893C52.0477 46.4611 52.259 46.9841 52.392 47.6354C52.6935 49.1064 52.3953 50.6369 51.5639 51.8873C51.1278 52.5411 50.7096 52.8752 50.182 53.4205C48.989 54.6541 48.1183 55.5569 46.3392 55.899C44.8634 56.1837 43.3344 55.8655 42.0941 55.0162C41.4867 54.5995 40.7389 53.7977 40.1898 53.2486L37.5521 50.608L35.0932 48.152C34.6102 47.67 33.9001 47.005 33.5092 46.4752C32.9953 45.7901 32.65 44.9932 32.5014 44.15C32.2036 42.4812 32.6259 41.0833 33.5697 39.7193C33.1588 39.2747 32.6135 38.7572 32.1762 38.3199L29.4467 35.5846C26.7056 37.813 23.3687 39.1849 19.8529 39.5279C15.0483 40.0103 10.2504 38.547 6.53261 35.4654C2.85402 32.426 0.534902 28.049 0.0863163 23.2984C-0.384094 18.5075 1.08159 13.727 4.15663 10.023C7.32139 6.21296 11.6517 4.0178 16.5609 3.55918ZM39.4057 39.6441C39.0174 39.7121 38.5259 39.9085 38.2689 40.2154C37.4301 41.2172 35.898 41.9878 36.1771 43.4811C36.232 43.7769 36.3615 44.0546 36.5531 44.2867C36.8663 44.6656 37.5982 45.3555 37.973 45.7301L40.6996 48.4537L42.9838 50.7428C43.7783 51.5392 44.3328 52.377 45.5805 52.2262C46.113 52.1165 46.5332 51.8329 46.8842 51.4244C47.6886 50.4873 49.0294 49.7981 48.7201 48.3697C48.6611 48.0949 48.5384 47.8381 48.3627 47.6188C48.0575 47.2457 47.38 46.6074 47.0101 46.2379L44.4232 43.6539L42.0355 41.2623C41.2432 40.4687 40.6329 39.5568 39.4057 39.6441Z" fill="black"/>
<path d="M29.4494 0.0151368C31.3885 -0.183137 31.7751 1.60682 32.2648 3.01807C32.5657 3.88455 32.8101 4.54745 33.3303 5.3208C34.0853 6.44031 35.1363 7.32972 36.3654 7.88916C36.936 8.14447 37.5568 8.32804 38.1398 8.55029C38.5877 8.72105 39.2425 8.90818 39.633 9.1499C40.1112 9.44278 40.4516 9.9165 40.5763 10.4634C40.7769 11.3615 40.3711 12.2861 39.5744 12.7466C39.2071 12.9604 38.7099 13.0994 38.3097 13.2524C37.6818 13.4923 36.9785 13.6981 36.3683 13.9741C35.4473 14.3913 34.6231 14.9965 33.9494 15.7505C32.8404 16.9893 32.5426 18.075 32.0031 19.5894C31.8638 19.98 31.6794 20.5697 31.4562 20.9009C31.0715 21.4716 30.6327 21.7107 29.9816 21.8452C29.1064 21.9155 28.2273 21.5521 27.8469 20.7563C27.3922 19.8048 27.1143 18.6593 26.6877 17.687C26.3026 16.808 25.7472 16.0136 25.0539 15.3501C23.7703 14.1166 22.6056 13.795 20.9933 13.2231C20.5447 13.0522 20.0793 12.9313 19.6779 12.6616C18.3932 11.7981 18.4841 9.85549 19.8322 9.10596C20.214 8.89208 20.6431 8.77683 21.05 8.62158C21.6983 8.37423 22.3903 8.17572 23.0217 7.89111C23.9099 7.48444 24.7088 6.90611 25.3732 6.18994C26.4655 5.00545 26.9185 3.67875 27.4191 2.19385C27.8103 1.03446 28.1159 0.244349 29.4494 0.0151368ZM29.6887 6.56689C28.5868 8.45014 27.2505 9.87222 25.3166 10.9302C26.8447 11.8364 27.9395 12.7297 28.9914 14.2026C29.2633 14.5833 29.4517 14.9316 29.6994 15.3052C30.867 13.3014 32.0682 12.1005 34.0715 10.9331C32.5809 10.0496 31.5721 9.22993 30.5119 7.83057C30.2931 7.54162 29.8236 6.72677 29.6887 6.56689Z" fill="black"/>
</svg>
