<svg width="76" height="76" viewBox="0 0 76 76" fill="none" xmlns="http://www.w3.org/2000/svg">
<mask id="path-1-inside-1_169_1894" fill="white">
<path d="M0 38C0 17.0132 17.0132 0 38 0C58.9868 0 76 17.0132 76 38C76 58.9868 58.9868 76 38 76C17.0132 76 0 58.9868 0 38Z"/>
</mask>
<path d="M0 38C0 17.0132 17.0132 0 38 0C58.9868 0 76 17.0132 76 38C76 58.9868 58.9868 76 38 76C17.0132 76 0 58.9868 0 38Z" fill="url(#paint0_linear_169_1894)"/>
<path d="M0 38M76 38M76 38M0 38M38 0M76 38M38 76M0 38M38 76V75C17.5655 75 1 58.4345 1 38H0H-1C-1 59.5391 16.4609 77 38 77V76ZM76 38H75C75 58.4345 58.4345 75 38 75V76V77C59.5391 77 77 59.5391 77 38H76ZM38 0V1C58.4345 1 75 17.5655 75 38H76H77C77 16.4609 59.5391 -1 38 -1V0ZM38 0V-1C16.4609 -1 -1 16.4609 -1 38H0H1C1 17.5655 17.5655 1 38 1V0Z" fill="white" mask="url(#path-1-inside-1_169_1894)"/>
<path d="M37.9969 17L19.7969 26.8V28.2H56.1969V26.8L37.9969 17ZM22.5969 31V45L19.7969 49.48V53.4H56.1969V49.48L53.3969 45V31H22.5969ZM28.1969 33.8H30.9969V49.2H28.1969V33.8ZM36.5969 33.8H39.3969V49.2H36.5969V33.8ZM44.9969 33.8H47.7969V49.2H44.9969V33.8Z" fill="#F9F4F4"/>
<defs>
<linearGradient id="paint0_linear_169_1894" x1="76" y1="38" x2="0" y2="38" gradientUnits="userSpaceOnUse">
<stop offset="0.005" stop-color="#D458FF" stop-opacity="0.4"/>
<stop offset="1" stop-color="#8358FF"/>
</linearGradient>
</defs>
</svg>
