<svg width="73" height="46" viewBox="0 0 73 46" fill="none" xmlns="http://www.w3.org/2000/svg">
<path d="M49.1293 0.000594472C55.2768 -0.0435601 61.1864 2.37359 65.5405 6.71349C69.8598 10.9947 72.2942 16.8214 72.3032 22.9029C72.3333 29.0355 69.8989 34.9236 65.5473 39.2447C61.7803 43.0182 56.8114 45.3543 51.5024 45.8483C49.0704 46.0754 45.771 45.979 43.2729 45.9742L31.5805 45.9791C29.7671 45.981 27.7409 46.0377 25.9399 45.9029C25.2676 45.8527 24.5052 45.3408 24.1039 44.776C23.6595 44.1555 23.4821 43.3826 23.6118 42.6305C23.8537 41.2954 25.306 40.3486 26.3295 39.5826C27.7576 38.5138 29.2061 37.3738 30.6782 36.3707C28.1695 32.8934 26.6958 28.7769 26.4252 24.4977C25.6898 11.202 35.4544 0.747078 48.6518 0.0191492C48.8105 0.006922 48.9701 0.00132303 49.1293 0.000594472ZM49.3862 3.79942C49.0716 3.80088 48.3314 3.8122 48.0239 3.85216C42.7557 4.31526 38.1333 6.51835 34.6967 10.5992C31.401 14.4902 29.7929 19.5346 30.2299 24.6149C30.5008 27.7737 31.5439 30.8179 33.267 33.4791C34.0943 34.7315 36.3041 36.5466 34.5619 38.0299C32.8747 39.4659 30.9148 40.9938 29.0785 42.2408C30.6852 42.0923 33.2335 42.1661 34.9076 42.1666L44.9311 42.1695C46.6303 42.1737 49.0921 42.2451 50.7338 42.1178C55.3233 41.7859 59.6384 39.8072 62.8852 36.5465C66.4878 32.976 68.5152 28.1139 68.516 23.0416C68.5487 17.9448 66.5295 13.0487 62.9135 9.45665C59.3385 5.84393 54.4688 3.80784 49.3862 3.79942ZM49.3354 19.94C50.4308 19.7118 51.5644 20.0899 52.3032 20.9303C53.0418 21.7709 53.2718 22.9444 52.9047 24.0016C52.5375 25.0586 51.6303 25.837 50.5297 26.0387C48.8561 26.3455 47.2463 25.2484 46.9194 23.5787C46.5927 21.909 47.6698 20.2871 49.3354 19.94ZM38.3813 19.9274C40.062 19.6162 41.6785 20.721 41.9985 22.4C42.3181 24.0791 41.2216 25.7013 39.5444 26.0299C37.8546 26.3607 36.2181 25.2535 35.8959 23.5621C35.574 21.8709 36.6885 20.2409 38.3813 19.9274ZM60.4213 19.9293C62.097 19.6141 63.7137 20.7093 64.0424 22.3824C64.3708 24.0555 63.2888 25.6801 61.6186 26.0221C59.9291 26.3679 58.2811 25.2708 57.9487 23.5787C57.6165 21.8868 58.7269 20.2483 60.4213 19.9293Z" fill="black"/>
<path d="M2.17887 21.275L13.1051 21.2662C14.4669 21.2658 18.9451 21.006 19.8292 21.7747C20.2205 22.1209 20.46 22.6071 20.496 23.1283C20.5936 24.5744 19.4852 25.1608 18.2181 25.2148L7.32993 25.2133C6.12522 25.2166 2.69577 25.2966 1.70633 25.1674C1.36139 25.1225 1.03552 24.9833 0.764577 24.7651C-0.694805 23.6103 0.0214122 21.4954 2.17887 21.275Z" fill="black"/>
<path d="M7.33322 12.1363C9.2158 12.1162 18.3503 11.8418 19.4527 12.3887C19.9389 12.63 20.2882 13.1152 20.4458 13.6258C20.599 14.1224 20.4952 14.5823 20.2498 15.0296C19.9179 15.6344 19.4208 15.8752 18.7802 16.0524L11.0556 16.0719C10.0054 16.0742 7.84732 16.1735 6.93925 16.007C4.70177 15.5967 4.41632 12.4903 7.33322 12.1363Z" fill="black"/>
<path d="M7.03831 30.4693C8.68437 30.3869 18.5805 30.2208 19.4633 30.7065C19.929 30.9627 20.3298 31.428 20.4797 31.9415C20.643 32.5012 20.4161 33.0164 20.133 33.4965C19.8275 34.0143 19.3368 34.2028 18.7811 34.3476C15.459 34.4742 12.0281 34.2836 8.69681 34.3744C7.89311 34.3479 6.22923 34.4712 5.71222 33.685C4.68869 32.1282 5.35463 30.7896 7.03831 30.4693Z" fill="black"/>
</svg>
