<svg width="144" height="144" viewBox="0 0 144 144" fill="none" xmlns="http://www.w3.org/2000/svg">
<path d="M72 12C60.1331 12 48.5328 15.5189 38.6658 22.1118C28.7989 28.7047 21.1085 38.0754 16.5673 49.039C12.026 60.0026 10.8378 72.0666 13.1529 83.7054C15.468 95.3443 21.1825 106.035 29.5736 114.426C37.9648 122.818 48.6557 128.532 60.2946 130.847C71.9335 133.162 83.9975 131.974 94.961 127.433C105.925 122.892 115.295 115.201 121.888 105.334C128.481 95.4673 132 83.8669 132 72C132 64.1207 130.448 56.3185 127.433 49.039C124.418 41.7595 119.998 35.1451 114.426 29.5736C108.855 24.0021 102.241 19.5825 94.961 16.5672C87.6815 13.5519 79.8793 12 72 12ZM60 99V45L96 72L60 99Z" fill="url(#paint0_linear_125_3581)" fill-opacity="0.4"/>
<path d="M72 12C60.1331 12 48.5328 15.5189 38.6658 22.1118C28.7989 28.7047 21.1085 38.0754 16.5673 49.039C12.026 60.0026 10.8378 72.0666 13.1529 83.7054C15.468 95.3443 21.1825 106.035 29.5736 114.426C37.9648 122.818 48.6557 128.532 60.2946 130.847C71.9335 133.162 83.9975 131.974 94.961 127.433C105.925 122.892 115.295 115.201 121.888 105.334C128.481 95.4673 132 83.8669 132 72C132 64.1207 130.448 56.3185 127.433 49.039C124.418 41.7595 119.998 35.1451 114.426 29.5736C108.855 24.0021 102.241 19.5825 94.961 16.5672C87.6815 13.5519 79.8793 12 72 12ZM60 99V45L96 72L60 99Z" fill="url(#paint1_radial_125_3581)" fill-opacity="0.8"/>
<defs>
<linearGradient id="paint0_linear_125_3581" x1="44.9047" y1="46.0141" x2="135.984" y2="62.8969" gradientUnits="userSpaceOnUse">
<stop offset="0.03" stop-color="#3912F1"/>
<stop offset="1" stop-color="#A481FF"/>
</linearGradient>
<radialGradient id="paint1_radial_125_3581" cx="0" cy="0" r="1" gradientTransform="matrix(38.0333 112.458 -46.0212 92.939 33.9667 19.5416)" gradientUnits="userSpaceOnUse">
<stop stop-color="#AA87FC"/>
<stop offset="1" stop-color="#3D1BCD"/>
</radialGradient>
</defs>
</svg>
